# Blender 4.4.3
# www.blender.org
o Cube
v -1.000000 -1.000000 1.000000
v -1.000000 1.000000 1.000000
v -1.000000 -1.000000 -1.000000
v -1.000000 1.000000 -1.000000
v 1.000000 -1.000000 1.000000
v 1.000000 1.000000 1.000000
v 1.000000 -1.000000 -1.000000
v 1.000000 1.000000 -1.000000
v -1.313109 0.000000 0.525114
v -0.525114 0.000000 -1.313109
v 1.313109 0.000000 -0.525114
v 0.525114 0.000000 1.313109
vn -0.8771 -0.2988 -0.3760
vn 0.3760 -0.2988 -0.8771
vn 0.8771 -0.2988 0.3760
vn -0.3760 -0.2988 0.8771
vn -0.0000 -1.0000 -0.0000
vn -0.0000 1.0000 -0.0000
vn -0.0000 -0.2988 0.9543
vn 0.9543 -0.2988 -0.0000
vn -0.0000 -0.2988 -0.9543
vn -0.9543 -0.2988 -0.0000
vn -0.9543 0.2988 -0.0000
vn -0.0000 0.2988 -0.9543
vn 0.9543 0.2988 -0.0000
vn -0.0000 0.2988 0.9543
vn -0.3760 0.2988 0.8771
vn 0.8771 0.2988 0.3760
vn 0.3760 0.2988 -0.8771
vn -0.8771 0.2988 -0.3760
vt 0.500000 0.000000
vt 0.625000 0.250000
vt 0.500000 0.250000
vt 0.625000 0.500000
vt 0.500000 0.500000
vt 0.625000 0.750000
vt 0.500000 0.750000
vt 0.625000 1.000000
vt 0.500000 1.000000
vt 0.375000 0.500000
vt 0.125000 0.750000
vt 0.125000 0.500000
vt 0.875000 0.500000
vt 0.375000 1.000000
vt 0.375000 0.750000
vt 0.375000 0.250000
vt 0.375000 0.000000
vt 0.625000 0.000000
vt 0.875000 0.750000
s 0
f 9/1/1 4/2/1 10/3/1
f 10/3/2 8/4/2 11/5/2
f 11/5/3 6/6/3 12/7/3
f 12/7/4 2/8/4 9/9/4
f 7/10/5 1/11/5 3/12/5
f 4/13/6 6/6/6 8/4/6
f 12/7/7 1/14/7 5/15/7
f 11/5/8 5/15/8 7/10/8
f 10/3/9 7/10/9 3/16/9
f 9/1/10 3/16/10 1/17/10
f 9/1/11 2/18/11 4/2/11
f 10/3/12 4/2/12 8/4/12
f 11/5/13 8/4/13 6/6/13
f 12/7/14 6/6/14 2/8/14
f 7/10/5 5/15/5 1/11/5
f 4/13/6 2/19/6 6/6/6
f 12/7/15 9/9/15 1/14/15
f 11/5/16 12/7/16 5/15/16
f 10/3/17 11/5/17 7/10/17
f 9/1/18 10/3/18 3/16/18
